<?xml version="1.0" standalone="no"?>
<svg xmlns:xlink="http://www.w3.org/1999/xlink" id="wave" style="transform:rotate(0deg); transition: 0.3s" viewBox="0 0 1440 300" version="1.1" xmlns="http://www.w3.org/2000/svg"><defs><linearGradient id="sw-gradient-0" x1="0" x2="0" y1="1" y2="0"><stop stop-color="rgba(252, 191, 73, 1)" offset="0%"/><stop stop-color="rgba(255, 179, 11, 1)" offset="100%"/></linearGradient></defs><path style="transform:translate(0, 0px); opacity:1" fill="url(#sw-gradient-0)" d="M0,30L80,65C160,100,320,170,480,190C640,210,800,180,960,155C1120,130,1280,110,1440,105C1600,100,1760,110,1920,135C2080,160,2240,200,2400,180C2560,160,2720,80,2880,55C3040,30,3200,60,3360,100C3520,140,3680,190,3840,175C4000,160,4160,80,4320,40C4480,0,4640,0,4800,45C4960,90,5120,180,5280,215C5440,250,5600,230,5760,195C5920,160,6080,110,6240,75C6400,40,6560,20,6720,50C6880,80,7040,160,7200,180C7360,200,7520,160,7680,125C7840,90,8000,60,8160,45C8320,30,8480,30,8640,45C8800,60,8960,90,9120,90C9280,90,9440,60,9600,50C9760,40,9920,50,10080,85C10240,120,10400,180,10560,180C10720,180,10880,120,11040,100C11200,80,11360,100,11440,110L11520,120L11520,300L11440,300C11360,300,11200,300,11040,300C10880,300,10720,300,10560,300C10400,300,10240,300,10080,300C9920,300,9760,300,9600,300C9440,300,9280,300,9120,300C8960,300,8800,300,8640,300C8480,300,8320,300,8160,300C8000,300,7840,300,7680,300C7520,300,7360,300,7200,300C7040,300,6880,300,6720,300C6560,300,6400,300,6240,300C6080,300,5920,300,5760,300C5600,300,5440,300,5280,300C5120,300,4960,300,4800,300C4640,300,4480,300,4320,300C4160,300,4000,300,3840,300C3680,300,3520,300,3360,300C3200,300,3040,300,2880,300C2720,300,2560,300,2400,300C2240,300,2080,300,1920,300C1760,300,1600,300,1440,300C1280,300,1120,300,960,300C800,300,640,300,480,300C320,300,160,300,80,300L0,300Z"/></svg>